<svg xmlns="http://www.w3.org/2000/svg" id="dino" viewBox="0 0 100 100" aria-labelledby="dinoDesc" style="transform: translate(0%, 0.392397%) translate3d(0px, 0px, 0px) scale(0.998707, 0.998707); visibility: inherit; opacity: 1;"><desc id="dinoDesc">A purple dinosaur with a red headset, listening and dancing to the music</desc><g class="dino-dino"><g class="dino-l-arm" style="" data-svg-origin="36.195858001708984 54.499996185302734" transform="matrix(1,0,0,1,0,2.129825572338801)"><path fill="none" stroke="#7f4fb2" stroke-linecap="round" stroke-linejoin="round" stroke-miterlimit="10" stroke-width="5.138" d="M55,63.8c0,0-8,2.9-12.6,0.9s-6.3-6.3-6.2-10.2"></path></g><g class="dino-tail" style="transform-origin: 0px 0px 0px;" data-svg-origin="64.87775802612305 78.39898681640625" transform="matrix(0.94244,0.33435,-0.33435,0.94244,29.947188717632578,-17.18019474589819)"><path fill="#7f4fb2" d="M69 74.1c5.7.7 10.7-1.8 12.8-3 .5-.3 1.1.1 1 .7-1.8 11.9-23.1 13.6-23.9 14L69 74.1z"></path></g><g class="dino-l-leg" style="transform-origin: 0px 0px 0px;" data-svg-origin="49.81098175048828 94.91090393066406" transform="matrix(1,0,-0.33137,0.9435,31.450704351760603,5.362409355300656)"><path fill="#7f4fb2" d="M55.3 93.6c-.2-2.2-.4-6.9-.1-10.7.2-2-1.2-3.7-3.2-4-1.8-.3-3.5.9-4 2.6l-3.6 11.8c-.3.8.3 1.6 1.2 1.6H54c.8.1 1.3-.5 1.3-1.3z"></path></g><g class="dino-head" style="transform-origin: 0px 0px 0px;" data-svg-origin="76.02258262634277 87.5" transform="matrix(0.99405,0.10887,-0.10887,0.99405,9.978869178000423,-7.757078388602466)"><g class="dino-back-hair"><path fill="#002c58" d="M59.6 15.7S59.7 7 56.8 7s-7 7.4-7 7.4l9.8 1.3z"></path><path fill="#002c58" d="M66.5 19.7s2.3-8.4-.5-9.1-8.6 5.4-8.6 5.4l9.1 3.7z"></path></g><path fill="#e7edf1" d="M47.1 48.6H44l1.2 2.7c.1.3.6.3.7 0l1.2-2.7z" class="teeth1"></path><path fill="#ab63d6" d="M66.5 53c-.9-2.1-1.2-5.3-1.2-8.9 0-7.4 1.5-16.6 2.1-22.1.3-2.5-1.3-4.9-3.8-5.5-2.7-.6-6.6-1.5-10.8-2-10.8-1.2-24.7-.5-31.3 10-1.8 2.8-8 17.9-1.1 21.7 5.6 3 24.3 3.4 30.1 2.7-.3 4-11.5 10.7-11.5 22.3 0 9.1 7.7 16.3 16.9 16.3 9.3 0 16.9-7.6 16.9-16.9 0-7.4-4.6-13.6-6.3-17.6z"></path><path fill="#9660c7" d="M67.5 22c-.7 5.4-2.1 14.6-2.1 22.1 0 0-3.8.6-4.8-8.7s7.1-18.6-7.7-20.8h-.1c4.3.5 8.1 1.3 10.8 2 2.5.6 4.2 2.9 3.9 5.4z"></path><path fill="none" stroke="#002c58" stroke-linecap="round" stroke-linejoin="round" stroke-miterlimit="10" stroke-width=".428" d="M47.7 49.1c9 .1 12.9-2 14-5.5" class="mouth-chillout"></path><path fill="none" stroke="#002c58" stroke-linecap="round" stroke-linejoin="round" stroke-miterlimit="10" stroke-width=".428" d="M54.6,47.1c-0.6,0-0.7,1-3,1" class="mouth-fuck-yeah" style="display: none;"></path><path fill="#e7edf1" d="M47.7 49.1l1.6 3c.2.3.7.3.9 0l1.2-2.6.2-.5-3.9.1z" class="teeth2"></path><g class="dino-headphone" style="transform-origin: 0px 0px 0px;" data-svg-origin="43.715554809570314 15.66422233581543" transform="matrix(1.05904,0,0,1.05904,-2.580966355957905,-0.9248156867068555)"><path fill="#ff0110" d="M71.5 28.1l.6-3.5-6.2-.6-.9 3.8 6.5.3z"></path><path fill="#ff0110" d="M61.1 35.1c0 7.9 6.3 8 8.5 8 3.5 0 4.1-3.6 4.1-8s-.6-8-4.1-8c-4.1 0-8.5.9-8.5 8z"></path><path fill="#ff5153" d="M63.8 35.1c0 4.5 2.3 8 5.8 8 3 0 6.3-3.6 6.3-8s-2.8-8-6.3-8-5.8 3.5-5.8 8z"></path><path fill="#ff5153" d="M33.4 15.7c-.4-.4-.4-.7-.3-1.2 2.1-12.1 24.2-7.2 34-3.8 8.3 3 6.7 11 5.8 14-.2.7-.9 1.1-1.5 1l-4.4-.3h-.7c-.9-.1-1.6-1-1.3-1.9.5-1.4 1-3.4 1.2-5.4.2-2.6-.4-5.1-3-5.9-5.7-1.6-24-7.1-27.2 2.8 0 0-.8.2-1.4.3-.5.2-1.2.4-1.2.4z"></path><path vector-effect="non-scaling-stroke" fill="none" stroke="#fff" stroke-linecap="round" stroke-linejoin="round" stroke-miterlimit="10" d="M76.5 32.5c2.1-1.8 4.4-3.5 6.7-4.9m-10 .5c.7-1.7.8-7.1-.6-8.6m4.6 18.7c2.5-.4 2 .1 2 2.3 2-.8 5.4.3 7.2 1.8m-11.6.8c-4 3.8 3.6 1.8 3 4.3-.3.9-2.5 1.4-2.4 2.5.7.8 1.7 1.2 2.8 1.3" class="dino-sounds"></path></g><g class="dino-eye" data-svg-origin="53 40.29999923706055" transform="matrix(1,0,0,0.09999,0,36.26999931335449)" style="transform-origin: 0px 0px 0px;"><circle cx="53" cy="40.3" r="2.8" fill="#002c58"></circle><circle cx="53.7" cy="38.7" r=".7" fill="#e7edf1" class="dino-bright" style="visibility: hidden; opacity: 0;"></circle></g><g class="dino-front-hair"><path fill="#002c58" d="M34.8 15.3c-.3-.6-2.8-4.8-4.4-3.7-1.5 1.1-.9 4.8-.8 5.6 1.7-.8 3.4-1.4 5.2-1.9z"></path><path fill="#002c58" d="M42.2 14.2c-.5-1.1-3.2-6.6-4.8-6-1.4.5-2.1 5.1-2.4 7.1 2.3-.6 4.8-1 7.2-1.1z"></path><path fill="#002c58" d="M50.8 14.4c-.2-1.4-2-9.4-4.2-9.4-2.3 0-4.1 8-4.3 9.2 2.9-.2 5.8-.1 8.5.2z"></path></g></g><g class="dino-r-leg" style="transform-origin: 0px 0px 0px;" data-svg-origin="61.91644096374512 94.91090393066406" transform="matrix(1,0,0.33137,0.9435,-31.450704351760606,5.362409355300656)"><path fill="#ab63d6" d="M67.4 93.6c-.2-2.2-.4-6.9-.1-10.7.2-2-1.2-3.7-3.2-4-1.8-.3-3.5.9-4 2.6l-3.6 11.8c-.3.8.3 1.6 1.2 1.6h8.4c.8.1 1.4-.5 1.3-1.3z"></path></g><g class="dino-r-arm" style="" data-svg-origin="52.70000457763672 59.400001525878906" transform="matrix(1,0,0,1,0,1.7348133419433056)"><path fill="none" stroke="#ae71db" stroke-linecap="round" stroke-linejoin="round" stroke-miterlimit="10" stroke-width="5.138" d="M64.8 59.4s4.1 6.6-.6 8.3c-4.8 1.6-9-.3-11.5-3.3"></path></g></g></svg>