<svg xmlns="http://www.w3.org/2000/svg" id="potion" viewBox="0 0 100 100" style="transform: matrix3d(0.96596, 0.258693, 0, 0, -0.258693, 0.96596, 0, 0, 0, 0, 1, 0, 0, 0, 0, 1); transform-origin: 50% 90% 0px;"><g class="potion-potion"><g class="potion-vase"><g class="potion-bottle"><path fill="#00c8c8" d="M55.6 23.2H44.8c-2.1 0-3.8-1.8-3.8-3.8l.1-6.4c0-1.6 1.4-3 3-3l12.6.1c1.6 0 3 1.4 3 3l-.1 6.4c-.3 2-2 3.7-4 3.7z"></path><path fill="#fff" d="M64.7 25.8c0-.2.2-6.2.2-6.2.1-2.2-1.8-4.1-4-4l-20.4-.1c-2.2 0-4 1.8-4 4.1 0 0 .1 5.9 0 6.2C25.8 31 18.6 42 18.6 54.7 18.4 72.5 32.6 87 50.1 87c17.5.1 31.9-14.3 32-32.2.1-12.8-7-23.7-17.4-29zm10.1 28.8c-.1 13.7-11.1 24.7-24.6 24.7-13.5-.1-24.4-11.2-24.3-24.9S37 29.7 50.5 29.7c13.4.1 24.4 11.2 24.3 24.9z" opacity=".8"></path><path fill="#e8d7ef" d="M50.4 29.7c-13.5 0-24.5 11.1-24.6 24.7 0 13.7 10.8 24.9 24.3 24.9s24.5-11.1 24.6-24.7c.2-13.7-10.8-24.8-24.3-24.9z" opacity=".8"></path><g class="potion-liquids" style="transform-origin: 0px 0px 0px;" data-svg-origin="0 0" transform="matrix(0.96595,-0.25869,0.25869,0.96595,0,0)"><path fill="#4612a5" class="potion-liquid2"><animate dur="1.6s" repeatCount="indefinite" attributeName="d" values="M73.5 50.4c-.9-4.8-4.5-4.5-7.9-3.8-9.9 1.8-23.5 13-31.1 14.3-5.4 1-8-5.2-7.4-2.2 2.3 12.7 14.6 21.3 27.4 19 12.8-2.2 21.3-14.4 19-27.3z;
                     M73.5 50.4c-.9-4.8-1 5.3-4.4 5.9-11 2-19.7-6.3-36-3.9-5.5.8-6.6 3.3-6.1 6.3 2.3 12.7 14.6 21.3 27.4 19 12.9-2.2 21.4-14.4 19.1-27.3z;
                     M73.5 50.4c-.9-4.8-4.5-4.5-7.9-3.8-9.9 1.8-23.5 13-31.1 14.3-5.4 1-8-5.2-7.4-2.2 2.3 12.7 14.6 21.3 27.4 19 12.8-2.2 21.3-14.4 19-27.3z;" calcMode="spline" keySplines="0.455 0.03 0.515 0.955;
                     0.455 0.03 0.515 0.955"></animate></path><path fill="#5918df" class="potion-liquid"><animate dur="1.4s" repeatCount="indefinite" attributeName="d" values="M27.1 58.8c-.9-4.8 2.6-5.8 6.1-6.3 9.9-1.8 26.5 3.9 34.1 2.6 5.4-1 5.7-7.7 6.2-4.6 2.3 12.7-6.2 25.1-19 27.4-12.8 2.3-25-6.2-27.4-19.1z;
                     M27.1 58.8c-.9-4.8 2.8 2.9 6.2 2.2 9.9-1.8 21.9-13.1 33-14.6 5.5-.7 6.6.9 7.1 3.9 2.3 12.7-6.2 25.1-19 27.4-12.7 2.5-24.9-6-27.3-18.9z;
                     M27.1 58.8c-.9-4.8 2.6-5.8 6.1-6.3 9.9-1.8 26.5 3.9 34.1 2.6 5.4-1 5.7-7.7 6.2-4.6 2.3 12.7-6.2 25.1-19 27.4-12.8 2.3-25-6.2-27.4-19.1z;" calcMode="spline" keySplines="0.455 0.03 0.515 0.955;
                     0.455 0.03 0.515 0.955"></animate></path></g></g><g class="potion-drops" style="transform-origin: 0px 0px 0px;" data-svg-origin="53.70000076293945 46.700002670288086" transform="matrix(0.96595,-0.25869,0.25869,0.96595,-10.252980995369782,15.481475229584255)"><ellipse cx="49.4" cy="37.5" fill="#5918df" rx="4.6" ry="4.6" class="potion-drop2" data-svg-origin="44.80000305175781 43.94000129699707" transform="matrix(0.00509,0.00016,-0.00016,0.00509,44.57873448453376,34.60248446328966)" style="transform-origin: 0px 0px 0px;"></ellipse><ellipse cx="59.8" cy="42" fill="#5918df" rx="2.8" ry="2.8" class="potion-drop" data-svg-origin="58.119999980926515 45.92000064849854" transform="matrix(0.07598,-0.04822,0.04822,0.07598,51.489024460096765,40.64136502516265)" style="transform-origin: 0px 0px 0px;"></ellipse></g></g></g></svg>